<svg xmlns="http://www.w3.org/2000/svg" width="960" height="560" viewBox="0 0 960 560" fill="none">
  <rect width="960" height="560" rx="28" fill="#172554"/>
  <rect x="32" y="32" width="896" height="496" rx="24" fill="#1E293B" stroke="#334155"/>
  <rect x="68" y="72" width="360" height="52" rx="12" fill="#2563EB"/>
  <text x="92" y="106" fill="#EFF6FF" font-size="28" font-family="Arial, sans-serif" font-weight="700">MCP Proxy Governance</text>
  <text x="68" y="164" fill="#E2E8F0" font-size="24" font-family="Arial, sans-serif">Scenario: tool call intercepted before downstream execution</text>
  <rect x="68" y="212" width="250" height="214" rx="18" fill="#0F172A" stroke="#475569"/>
  <text x="92" y="250" fill="#93C5FD" font-size="22" font-family="Courier New, monospace">client</text>
  <text x="92" y="294" fill="#E2E8F0" font-size="20" font-family="Courier New, monospace">tools/call</text>
  <text x="92" y="330" fill="#E2E8F0" font-size="20" font-family="Courier New, monospace">name=filesystem.write</text>
  <text x="92" y="366" fill="#E2E8F0" font-size="20" font-family="Courier New, monospace">path=/repo/.env</text>
  <rect x="356" y="212" width="250" height="214" rx="18" fill="#082F49" stroke="#38BDF8"/>
  <text x="382" y="250" fill="#E0F2FE" font-size="22" font-family="Arial, sans-serif" font-weight="700">DualKey proxy</text>
  <text x="382" y="294" fill="#BAE6FD" font-size="20" font-family="Arial, sans-serif">ActionEnvelope</text>
  <text x="382" y="330" fill="#BAE6FD" font-size="20" font-family="Arial, sans-serif">policy => deny / ask</text>
  <text x="382" y="366" fill="#BAE6FD" font-size="20" font-family="Arial, sans-serif">receipt => signed</text>
  <rect x="644" y="212" width="208" height="214" rx="18" fill="#0F172A" stroke="#475569"/>
  <text x="672" y="250" fill="#E2E8F0" font-size="22" font-family="Arial, sans-serif" font-weight="700">downstream</text>
  <text x="672" y="294" fill="#94A3B8" font-size="20" font-family="Arial, sans-serif">only reached</text>
  <text x="672" y="330" fill="#94A3B8" font-size="20" font-family="Arial, sans-serif">after approval</text>
  <path d="M318 320H356" stroke="#60A5FA" stroke-width="6" stroke-linecap="round"/>
  <path d="M606 320H644" stroke="#60A5FA" stroke-width="6" stroke-linecap="round"/>
  <text x="68" y="500" fill="#7DD3FC" font-size="20" font-family="Arial, sans-serif">GIF placeholder: initialize, blocked write, elicitation approve, forwarded tool call</text>
</svg>
